<?xml version="1.0" standalone="no"?>
<!DOCTYPE svg PUBLIC "-//W3C//DTD SVG 20010904//EN"
 "http://www.w3.org/TR/2001/REC-SVG-20010904/DTD/svg10.dtd">
<svg version="1.0" xmlns="http://www.w3.org/2000/svg"
 width="52.000000pt" height="52.000000pt" viewBox="0 0 52.000000 52.000000"
 preserveAspectRatio="xMidYMid meet">

<g transform="translate(0.000000,52.000000) scale(0.100000,-0.100000)"
fill="#000000" stroke="none">
<path d="M15 316 c55 -38 236 -146 245 -146 13 0 261 153 256 158 -2 1 -60
-31 -130 -74 l-126 -76 -125 76 c-69 42 -129 76 -132 76 -4 0 1 -6 12 -14z"/>
<path d="M20 237 c0 -8 228 -147 240 -147 12 0 240 139 240 147 0 5 -15 -4
-153 -89 -43 -26 -82 -48 -87 -48 -5 0 -44 22 -87 48 -138 85 -153 94 -153 89z"/>
<path d="M10 160 c35 -24 54 -31 30 -11 -14 11 -29 21 -35 21 -6 0 -3 -5 5
-10z"/>
<path d="M474 144 c-18 -14 -18 -15 4 -4 12 6 22 13 22 15 0 8 -5 6 -26 -11z"/>
<path d="M89 113 c13 -10 43 -28 65 -41 23 -13 30 -15 17 -5 -13 10 -43 28
-65 41 -23 13 -30 15 -17 5z"/>
<path d="M413 109 c-35 -22 -46 -37 -15 -20 22 13 58 40 52 41 -3 0 -20 -10
-37 -21z"/>
<path d="M344 64 c-18 -14 -18 -15 4 -4 12 6 22 13 22 15 0 8 -5 6 -26 -11z"/>
<path d="M220 31 c31 -26 49 -26 80 0 l25 21 -32 -18 c-32 -18 -34 -18 -65 0
l-33 18 25 -21z"/>
</g>
</svg>
