<?xml version="1.0" encoding="utf-8"?>
<!-- Generator: Adobe Illustrator 26.3.1, SVG Export Plug-In . SVG Version: 6.00 Build 0)  -->
<svg version="1.1" id="Layer_1" xmlns="http://www.w3.org/2000/svg" xmlns:xlink="http://www.w3.org/1999/xlink" x="0px" y="0px"
	 viewBox="0 0 50 50" style="enable-background:new 0 0 50 50;" xml:space="preserve">

<path fill="silver" class="st0" d="M49.9,33.2l-2-18.4c-0.2-6-3.1-7.9-7.4-8.5c-11.6-1.9-19-4.6-29.1-6.1C2.6-1.1,1.1,4.3,1.4,10
	c0.5,11.2,0.4,17.9-1.3,29.7c-0.8,6.1,4.1,11.8,9.9,10c12.9-3.8,20.1-5.6,34.3-6.6C50,42.7,50.2,36.2,49.9,33.2z M33.2,12.7
	c0.8,0,1.6,0.7,1.6,1.6s-0.7,1.6-1.6,1.6c-0.8,0-1.6-0.7-1.6-1.6S32.3,12.7,33.2,12.7z M28.6,9.7c1.2,0,2.2,1,2.2,2.3
	s-1,2.3-2.2,2.3c-1.2,0-2.2-1-2.2-2.3S27.4,9.7,28.6,9.7z M16.8,11.2c1.2,0,2.2,1,2.2,2.3s-1,2.3-2.2,2.3c-1.2,0-2.2-1-2.2-2.3
	S15.6,11.2,16.8,11.2z M19.4,20.6C19.2,22,18,23,16.8,22.9c-1.2-0.2-2-1.4-1.9-2.8c0.2-1.4,1.3-2.4,2.5-2.2
	C18.7,17.9,19.5,19.2,19.4,20.6z M16.6,41c-1,1.1-2.6,1.4-3.5,0.5c-0.9-0.8-0.8-2.4,0.2-3.6s2.6-1.4,3.5-0.5
	C17.7,38.2,17.6,39.8,16.6,41z M17.9,34c-0.4,1-1.4,1.4-2.3,1c-0.8-0.4-1.1-1.4-0.7-2.4c0.4-1,1.4-1.4,2.3-1
	C18,31.9,18.4,33,17.9,34z M19.6,28.3c-0.6,1.3-1.9,1.9-3,1.4c-1.1-0.5-1.5-2-1-3.2c0.6-1.3,1.9-1.9,3-1.4
	C19.7,25.6,20.2,27,19.6,28.3z M24.3,27.8c-0.1,0.8-0.9,1.3-1.7,1.1c-0.8-0.1-1.3-0.9-1.1-1.7c0.1-0.8,0.9-1.3,1.7-1.1
	C24,26.2,24.5,27,24.3,27.8z M22.5,13.4c-1.4,0-2.6-1.2-2.6-2.7C19.9,9.2,21,8,22.5,8c1.4,0,2.6,1.2,2.6,2.7S23.9,13.4,22.5,13.4z
	 M27.5,28.8c-1,0.1-1.8-0.6-1.9-1.4c-0.1-0.8,0.6-1.6,1.6-1.7c1-0.1,1.9,0.5,1.9,1.4C29.2,28,28.5,28.7,27.5,28.8z M34.4,26
	c-0.3,1.2-1.5,1.8-2.8,1.5c-1.2-0.3-2-1.5-1.7-2.7s1.5-1.8,2.8-1.5C33.9,23.7,34.7,24.9,34.4,26z M34.7,22.6c-1.6,0-2.8-1.2-2.8-2.8
	s1.3-2.8,2.8-2.8s2.8,1.2,2.8,2.8S36.3,22.6,34.7,22.6z"/>
</svg>
